<?xml version="1.0" encoding="UTF-8" standalone="no"?>
<svg
   xmlns:dc="http://purl.org/dc/elements/1.1/"
   xmlns:cc="http://creativecommons.org/ns#"
   xmlns:rdf="http://www.w3.org/1999/02/22-rdf-syntax-ns#"
   xmlns:svg="http://www.w3.org/2000/svg"
   xmlns="http://www.w3.org/2000/svg"
   xmlns:sodipodi="http://sodipodi.sourceforge.net/DTD/sodipodi-0.dtd"
   xmlns:inkscape="http://www.inkscape.org/namespaces/inkscape"
   version="1.1"
   width="11.929976cm"
   height="6.4793711cm"
   viewBox="0 0 46968.444 25509.359"
   id="svg2"
   inkscape:version="0.91 r13725"
   sodipodi:docname="mcp.svg">
  <metadata
     id="metadata338">
    <rdf:RDF>
      <cc:Work
         rdf:about="">
        <dc:format>image/svg+xml</dc:format>
        <dc:type
           rdf:resource="http://purl.org/dc/dcmitype/StillImage" />
        <dc:title>SVG Picture created as mcp.svg date 2016/03/09 22:30:02 </dc:title>
      </cc:Work>
    </rdf:RDF>
  </metadata>
  <defs
     id="defs336" />
  <sodipodi:namedview
     pagecolor="#ffffff"
     bordercolor="#666666"
     borderopacity="1"
     objecttolerance="10"
     gridtolerance="10"
     guidetolerance="10"
     inkscape:pageopacity="0"
     inkscape:pageshadow="2"
     inkscape:window-width="1920"
     inkscape:window-height="1034"
     id="namedview334"
     showgrid="false"
     fit-margin-top="1"
     fit-margin-right="2"
     fit-margin-left="2"
     fit-margin-bottom="1"
     inkscape:zoom="2.0449096"
     inkscape:cx="352.30012"
     inkscape:cy="109.2615"
     inkscape:window-x="0"
     inkscape:window-y="0"
     inkscape:window-maximized="1"
     inkscape:current-layer="svg2" />
  <title
     id="title4">SVG Picture created as mcp.svg date 2016/03/09 22:30:02 </title>
  <desc
     id="desc6">Picture generated by Eeschema-SVG </desc>
  <g
     style="fill:#000000;fill-opacity:1;stroke:#000000;stroke-linecap:round;stroke-linejoin:round;stroke-opacity:1"
     id="g8"
     transform="translate(-43435.581,-7957.6504)" />
  <g
     style="fill:#000000;fill-opacity:0;stroke:#000000;stroke-width:0;stroke-linecap:round;stroke-linejoin:round;stroke-opacity:1"
     id="g10"
     transform="translate(-43435.581,-7957.6504)" />
  <g
     style="fill:#840000;fill-opacity:0;stroke:#840000;stroke-width:120;stroke-linecap:round;stroke-linejoin:round;stroke-opacity:1"
     id="g12"
     transform="translate(-43435.581,-7957.6504)">
    <rect
       x="52600"
       y="16000"
       width="800"
       height="3000"
       rx="0"
       id="rect14" />
  </g>
  <g
     style="fill:#840000;fill-opacity:0;stroke:#840000;stroke-width:60;stroke-linecap:round;stroke-linejoin:round;stroke-opacity:1"
     id="g16"
     transform="translate(-43435.581,-7957.6504)">
    <path
       d="m 53000,16000 0,-1000"
       id="path18"
       inkscape:connector-curvature="0" />
  </g>
  <g
     style="fill:#008484;fill-opacity:0;stroke:#008484;stroke-width:60;stroke-linecap:round;stroke-linejoin:round;stroke-opacity:1"
     id="g20"
     transform="translate(-43435.581,-7957.6504)">
    <path
       d="m 53000,19000 0,1000"
       id="path22"
       inkscape:connector-curvature="0" />
  </g>
  <g
     style="fill:#008484;fill-opacity:0;stroke:#008484;stroke-width:60;stroke-linecap:round;stroke-linejoin:round;stroke-opacity:1"
     id="g24"
     transform="translate(-43435.581,-7957.6504)">
    <path
       d="m 53950,17940 -190,130"
       id="path26"
       inkscape:connector-curvature="0" />
    <path
       d="m 53950,18160 -400,0 0,-150 20,-40 20,-10 40,-20 50,0 40,20 20,10 20,40 0,150"
       id="path28"
       inkscape:connector-curvature="0" />
    <path
       d="m 53990,17860 0,-300"
       id="path30"
       inkscape:connector-curvature="0" />
    <path
       d="m 53950,17460 -400,0 0,-150 20,-40 20,-10 40,-20 50,0 40,20 20,10 20,40 0,150"
       id="path32"
       inkscape:connector-curvature="0" />
    <path
       d="m 53550,17060 320,0 40,-10 20,-20 20,-40 0,-80 -20,-40 -20,-10 -40,-20 -320,0"
       id="path34"
       inkscape:connector-curvature="0" />
    <path
       d="m 53220,17370 -190,130"
       id="path36"
       inkscape:connector-curvature="0" />
    <path
       d="m 53220,17590 -400,0 0,-150 20,-40 20,-10 40,-20 50,0 40,20 20,10 20,40 0,150"
       id="path38"
       inkscape:connector-curvature="0" />
  </g>
  <g
     style="fill:#008484;fill-opacity:0;stroke:#008484;stroke-width:0;stroke-linecap:round;stroke-linejoin:round;stroke-opacity:1"
     id="g40"
     transform="translate(-43435.581,-7957.6504)" />
  <g
     style="fill:#840000;fill-opacity:0;stroke:#840000;stroke-width:60;stroke-linecap:round;stroke-linejoin:round;stroke-opacity:1"
     id="g42"
     transform="translate(-43435.581,-7957.6504)">
    <circle
       cx="53000"
       cy="26250"
       r="250"
       id="circle44" />
    <circle
       cx="53000"
       cy="23750"
       r="250"
       id="circle46" />
    <polyline
       fill="none;"
       points="52250,24000 53000,26000 "
       id="polyline48" />
    <path
       d="m 53000,26500 0,1500"
       id="path50"
       inkscape:connector-curvature="0" />
  </g>
  <g
     style="fill:#008484;fill-opacity:0;stroke:#008484;stroke-width:60;stroke-linecap:round;stroke-linejoin:round;stroke-opacity:1"
     id="g52"
     transform="translate(-43435.581,-7957.6504)">
    <path
       d="m 53000,23500 0,-1500"
       id="path54"
       inkscape:connector-curvature="0" />
  </g>
  <g
     style="fill:#008484;fill-opacity:0;stroke:#008484;stroke-width:60;stroke-linecap:round;stroke-linejoin:round;stroke-opacity:1"
     id="g56"
     transform="translate(-43435.581,-7957.6504)">
    <path
       d="m 52000,25940 40,-100 0,-170 -40,-70 -30,-30 -70,-30 -60,0 -70,30 -30,30 -40,70 -30,130 -30,70 -40,30 -60,40 -70,0 -70,-40 -30,-30 -30,-70 0,-160 30,-100"
       id="path58"
       inkscape:connector-curvature="0" />
    <path
       d="m 51340,25300 700,-170 -500,-130 500,-130 -700,-170"
       id="path60"
       inkscape:connector-curvature="0" />
    <path
       d="m 52040,24070 0,400"
       id="path62"
       inkscape:connector-curvature="0" />
    <path
       d="m 52040,24270 -700,0 100,60 60,70 40,70"
       id="path64"
       inkscape:connector-curvature="0" />
  </g>
  <g
     style="fill:#008484;fill-opacity:0;stroke:#008484;stroke-width:0;stroke-linecap:round;stroke-linejoin:round;stroke-opacity:1"
     id="g66"
     transform="translate(-43435.581,-7957.6504)" />
  <g
     style="fill:#840000;fill-opacity:0;stroke:#840000;stroke-width:60;stroke-linecap:round;stroke-linejoin:round;stroke-opacity:1"
     id="g68"
     transform="translate(-43435.581,-7957.6504)">
    <polyline
       fill="none;"
       points="52500,29000 53000,29500 53500,29000 52500,29000 "
       id="polyline70" />
  </g>
  <g
     style="fill:#840000;fill-opacity:0;stroke:#840000;stroke-width:0;stroke-linecap:round;stroke-linejoin:round;stroke-opacity:1"
     id="g72"
     transform="translate(-43435.581,-7957.6504)" />
  <g
     style="fill:#840000;fill-opacity:0;stroke:#840000;stroke-width:60;stroke-linecap:round;stroke-linejoin:round;stroke-opacity:1"
     id="g74"
     transform="translate(-43435.581,-7957.6504)">
    <circle
       cx="53000"
       cy="12500"
       r="200"
       id="circle76" />
    <polyline
       fill="none;"
       points="53000,13000 53000,12700 53000,12700 53000,12700 "
       id="polyline78" />
  </g>
  <g
     style="fill:#008484;fill-opacity:0;stroke:#008484;stroke-width:50;stroke-linecap:round;stroke-linejoin:round;stroke-opacity:1"
     id="g80"
     transform="translate(-43435.581,-7957.6504)">
    <path
       d="m 52610,12100 230,0"
       id="path82"
       inkscape:connector-curvature="0" />
    <path
       d="m 52730,12220 0,-230"
       id="path84"
       inkscape:connector-curvature="0" />
    <path
       d="m 53120,11920 -140,0 -10,140 10,-20 30,-10 70,0 30,10 10,20 20,30 0,70 -20,30 -10,10 -30,20 -70,0 -30,-20 -10,-10"
       id="path86"
       inkscape:connector-curvature="0" />
    <path
       d="m 53230,11920 100,300 100,-300"
       id="path88"
       inkscape:connector-curvature="0" />
  </g>
  <g
     style="fill:#008484;fill-opacity:0;stroke:#008484;stroke-width:60;stroke-linecap:round;stroke-linejoin:round;stroke-opacity:1"
     id="g90"
     transform="translate(-43435.581,-7957.6504)" />
  <g
     style="fill:#008400;fill-opacity:0;stroke:#008400;stroke-width:60;stroke-linecap:round;stroke-linejoin:round;stroke-opacity:1"
     id="g92"
     transform="translate(-43435.581,-7957.6504)">
    <path
       d="m 53000,20000 0,2000"
       id="path94"
       inkscape:connector-curvature="0" />
    <path
       d="m 53000,21000 2500,0"
       id="path96"
       inkscape:connector-curvature="0" />
  </g>
  <g
     style="fill:#008400;fill-opacity:0;stroke:#008400;stroke-width:0;stroke-linecap:round;stroke-linejoin:round;stroke-opacity:1"
     id="g98"
     transform="translate(-43435.581,-7957.6504)" />
  <g
     style="fill:#008400;fill-opacity:1;stroke:#008400;stroke-width:100;stroke-linecap:round;stroke-linejoin:round;stroke-opacity:1"
     id="g100"
     transform="translate(-43435.581,-7957.6504)">
    <circle
       cx="53000"
       cy="21000"
       r="200"
       id="circle102" />
  </g>
  <g
     style="fill:#008400;fill-opacity:1;stroke:#008400;stroke-width:60;stroke-linecap:round;stroke-linejoin:round;stroke-opacity:1"
     id="g104"
     transform="translate(-43435.581,-7957.6504)">
    <path
       d="m 53000,15000 0,-2000"
       id="path106"
       inkscape:connector-curvature="0" />
    <path
       d="m 53000,28000 0,1000"
       id="path108"
       inkscape:connector-curvature="0" />
  </g>
  <g
     style="fill:#008400;fill-opacity:1;stroke:#008400;stroke-width:0;stroke-linecap:round;stroke-linejoin:round;stroke-opacity:1"
     id="g110"
     transform="translate(-43435.581,-7957.6504)" />
  <g
     style="fill:#840000;fill-opacity:0;stroke:#840000;stroke-width:120;stroke-linecap:round;stroke-linejoin:round;stroke-opacity:1"
     id="g112"
     transform="translate(-43435.581,-7957.6504)">
    <rect
       x="63100"
       y="23000"
       width="800"
       height="3000"
       rx="0"
       id="rect114" />
  </g>
  <g
     style="fill:#840000;fill-opacity:0;stroke:#840000;stroke-width:60;stroke-linecap:round;stroke-linejoin:round;stroke-opacity:1"
     id="g116"
     transform="translate(-43435.581,-7957.6504)">
    <path
       d="m 63500,23000 0,-1000"
       id="path118"
       inkscape:connector-curvature="0" />
  </g>
  <g
     style="fill:#008484;fill-opacity:0;stroke:#008484;stroke-width:60;stroke-linecap:round;stroke-linejoin:round;stroke-opacity:1"
     id="g120"
     transform="translate(-43435.581,-7957.6504)">
    <path
       d="m 63500,26000 0,1000"
       id="path122"
       inkscape:connector-curvature="0" />
  </g>
  <g
     style="fill:#008484;fill-opacity:0;stroke:#008484;stroke-width:60;stroke-linecap:round;stroke-linejoin:round;stroke-opacity:1"
     id="g124"
     transform="translate(-43435.581,-7957.6504)">
    <path
       d="m 64450,24930 -190,130"
       id="path126"
       inkscape:connector-curvature="0" />
    <path
       d="m 64450,25150 -400,0 0,-150 20,-40 20,-10 40,-20 50,0 40,20 20,10 20,40 0,150"
       id="path128"
       inkscape:connector-curvature="0" />
    <path
       d="m 64490,24850 0,-300"
       id="path130"
       inkscape:connector-curvature="0" />
    <path
       d="m 64450,24450 -400,0 0,-150 20,-40 20,-10 40,-20 50,0 40,20 20,10 20,40 0,150"
       id="path132"
       inkscape:connector-curvature="0" />
    <path
       d="m 64450,24050 -400,0 0,-90 20,-60 40,-40 40,-10 70,-20 60,0 80,20 30,10 40,40 20,60 0,90"
       id="path134"
       inkscape:connector-curvature="0" />
    <path
       d="m 63720,24370 -190,130"
       id="path136"
       inkscape:connector-curvature="0" />
    <path
       d="m 63720,24590 -400,0 0,-150 20,-40 20,-10 40,-20 50,0 40,20 20,10 20,40 0,150"
       id="path138"
       inkscape:connector-curvature="0" />
  </g>
  <g
     style="fill:#008484;fill-opacity:0;stroke:#008484;stroke-width:0;stroke-linecap:round;stroke-linejoin:round;stroke-opacity:1"
     id="g140"
     transform="translate(-43435.581,-7957.6504)" />
  <g
     style="fill:#840000;fill-opacity:0;stroke:#840000;stroke-width:60;stroke-linecap:round;stroke-linejoin:round;stroke-opacity:1"
     id="g142"
     transform="translate(-43435.581,-7957.6504)">
    <circle
       cx="63500"
       cy="18250"
       r="250"
       id="circle144" />
    <circle
       cx="63500"
       cy="15750"
       r="250"
       id="circle146" />
    <polyline
       fill="none;"
       points="62750,16000 63500,18000 "
       id="polyline148" />
    <path
       d="m 63500,18500 0,1500"
       id="path150"
       inkscape:connector-curvature="0" />
  </g>
  <g
     style="fill:#008484;fill-opacity:0;stroke:#008484;stroke-width:60;stroke-linecap:round;stroke-linejoin:round;stroke-opacity:1"
     id="g152"
     transform="translate(-43435.581,-7957.6504)">
    <path
       d="m 63500,15500 0,-1500"
       id="path154"
       inkscape:connector-curvature="0" />
  </g>
  <g
     style="fill:#008484;fill-opacity:0;stroke:#008484;stroke-width:60;stroke-linecap:round;stroke-linejoin:round;stroke-opacity:1"
     id="g156"
     transform="translate(-43435.581,-7957.6504)">
    <path
       d="m 62500,17940 40,-100 0,-170 -40,-70 -30,-30 -70,-30 -60,0 -70,30 -30,30 -40,70 -30,130 -30,70 -40,30 -60,40 -70,0 -70,-40 -30,-30 -30,-70 0,-160 30,-100"
       id="path158"
       inkscape:connector-curvature="0" />
    <path
       d="m 61840,17300 700,-170 -500,-130 500,-130 -700,-170"
       id="path160"
       inkscape:connector-curvature="0" />
    <path
       d="m 61900,16470 -30,-40 -30,-60 0,-170 30,-70 30,-30 70,-30 70,0 100,30 400,400 0,-430"
       id="path162"
       inkscape:connector-curvature="0" />
  </g>
  <g
     style="fill:#008484;fill-opacity:0;stroke:#008484;stroke-width:0;stroke-linecap:round;stroke-linejoin:round;stroke-opacity:1"
     id="g164"
     transform="translate(-43435.581,-7957.6504)" />
  <g
     style="fill:#840000;fill-opacity:0;stroke:#840000;stroke-width:60;stroke-linecap:round;stroke-linejoin:round;stroke-opacity:1"
     id="g166"
     transform="translate(-43435.581,-7957.6504)">
    <polyline
       fill="none;"
       points="63000,29000 63500,29500 64000,29000 63000,29000 "
       id="polyline168" />
  </g>
  <g
     style="fill:#840000;fill-opacity:0;stroke:#840000;stroke-width:0;stroke-linecap:round;stroke-linejoin:round;stroke-opacity:1"
     id="g170"
     transform="translate(-43435.581,-7957.6504)" />
  <g
     style="fill:#840000;fill-opacity:0;stroke:#840000;stroke-width:60;stroke-linecap:round;stroke-linejoin:round;stroke-opacity:1"
     id="g172"
     transform="translate(-43435.581,-7957.6504)">
    <circle
       cx="63500"
       cy="12500"
       r="200"
       id="circle174" />
    <polyline
       fill="none;"
       points="63500,13000 63500,12700 63500,12700 63500,12700 "
       id="polyline176" />
  </g>
  <g
     style="fill:#008484;fill-opacity:0;stroke:#008484;stroke-width:50;stroke-linecap:round;stroke-linejoin:round;stroke-opacity:1"
     id="g178"
     transform="translate(-43435.581,-7957.6504)">
    <path
       d="m 63110,12100 230,0"
       id="path180"
       inkscape:connector-curvature="0" />
    <path
       d="m 63230,12220 0,-230"
       id="path182"
       inkscape:connector-curvature="0" />
    <path
       d="m 63620,11920 -140,0 -10,140 10,-20 30,-10 70,0 30,10 10,20 20,30 0,70 -20,30 -10,10 -30,20 -70,0 -30,-20 -10,-10"
       id="path184"
       inkscape:connector-curvature="0" />
    <path
       d="m 63730,11920 100,300 100,-300"
       id="path186"
       inkscape:connector-curvature="0" />
  </g>
  <g
     style="fill:#008484;fill-opacity:0;stroke:#008484;stroke-width:60;stroke-linecap:round;stroke-linejoin:round;stroke-opacity:1"
     id="g188"
     transform="translate(-43435.581,-7957.6504)" />
  <g
     style="fill:#008400;fill-opacity:0;stroke:#008400;stroke-width:60;stroke-linecap:round;stroke-linejoin:round;stroke-opacity:1"
     id="g190"
     transform="translate(-43435.581,-7957.6504)">
    <path
       d="m 63500,20000 0,2000"
       id="path192"
       inkscape:connector-curvature="0" />
    <path
       d="m 63500,21000 2500,0"
       id="path194"
       inkscape:connector-curvature="0" />
  </g>
  <g
     style="fill:#008400;fill-opacity:0;stroke:#008400;stroke-width:0;stroke-linecap:round;stroke-linejoin:round;stroke-opacity:1"
     id="g196"
     transform="translate(-43435.581,-7957.6504)" />
  <g
     style="fill:#008400;fill-opacity:1;stroke:#008400;stroke-width:100;stroke-linecap:round;stroke-linejoin:round;stroke-opacity:1"
     id="g198"
     transform="translate(-43435.581,-7957.6504)">
    <circle
       cx="63500"
       cy="21000"
       r="200"
       id="circle200" />
  </g>
  <g
     style="fill:#008400;fill-opacity:1;stroke:#008400;stroke-width:60;stroke-linecap:round;stroke-linejoin:round;stroke-opacity:1"
     id="g202"
     transform="translate(-43435.581,-7957.6504)">
    <path
       d="m 63500,27000 0,2000"
       id="path204"
       inkscape:connector-curvature="0" />
    <path
       d="m 63500,13000 0,1000"
       id="path206"
       inkscape:connector-curvature="0" />
  </g>
  <g
     style="fill:#008400;fill-opacity:1;stroke:#008400;stroke-width:0;stroke-linecap:round;stroke-linejoin:round;stroke-opacity:1"
     id="g208"
     transform="translate(-43435.581,-7957.6504)" />
  <g
     style="fill:#840000;fill-opacity:0;stroke:#840000;stroke-width:60;stroke-linecap:round;stroke-linejoin:round;stroke-opacity:1"
     id="g210"
     transform="translate(-43435.581,-7957.6504)">
    <rect
       x="75000"
       y="19500"
       width="1000"
       height="3000"
       rx="0"
       id="rect212" />
  </g>
  <g
     style="fill:#840000;fill-opacity:1;stroke:#840000;stroke-width:60;stroke-linecap:round;stroke-linejoin:round;stroke-opacity:1"
     id="g214"
     transform="translate(-43435.581,-7957.6504)">
    <polyline
       style="fill-rule:evenodd"
       points="76000,21000 76200,20800 76200,21200 "
       id="polyline216" />
    <path
       d="m 75500,19500 0,-1000"
       id="path218"
       inkscape:connector-curvature="0" />
  </g>
  <g
     style="fill:#840000;fill-opacity:0;stroke:#840000;stroke-width:60;stroke-linecap:round;stroke-linejoin:round;stroke-opacity:1"
     id="g220"
     transform="translate(-43435.581,-7957.6504)">
    <path
       d="m 75380,18890 0,220"
       id="path222"
       inkscape:connector-curvature="0" />
    <path
       d="m 75380,19000 -400,0 60,40 40,40 20,30"
       id="path224"
       inkscape:connector-curvature="0" />
    <path
       d="m 76200,21000 800,0"
       id="path226"
       inkscape:connector-curvature="0" />
    <path
       d="m 76490,20520 20,-20 30,-20 100,0 40,20 20,20 10,40 0,40 -10,50 -230,230 240,0"
       id="path228"
       inkscape:connector-curvature="0" />
    <path
       d="m 75500,22500 0,1000"
       id="path230"
       inkscape:connector-curvature="0" />
    <path
       d="m 74980,23130 0,-240 150,130 0,-60 20,-40 20,-20 40,-10 90,0 40,10 20,20 20,40 0,120 -20,30 -20,20"
       id="path232"
       inkscape:connector-curvature="0" />
  </g>
  <g
     style="fill:#008484;fill-opacity:0;stroke:#008484;stroke-width:60;stroke-linecap:round;stroke-linejoin:round;stroke-opacity:1"
     id="g234"
     transform="translate(-43435.581,-7957.6504)">
    <path
       d="m 74760,21580 -500,0 0,-190 20,-50 20,-20 50,-20 70,0 50,20 20,20 30,50 0,190"
       id="path236"
       inkscape:connector-curvature="0" />
    <path
       d="m 74260,20990 0,-100 20,-50 50,-40 90,-30 170,0 90,30 50,40 30,50 0,100 -30,40 -50,50 -90,20 -170,0 -90,-20 -50,-50 -20,-40"
       id="path238"
       inkscape:connector-curvature="0" />
    <path
       d="m 74260,20630 0,-280"
       id="path240"
       inkscape:connector-curvature="0" />
    <path
       d="m 74760,20490 -500,0"
       id="path242"
       inkscape:connector-curvature="0" />
    <path
       d="m 75760,20850 -240,160"
       id="path244"
       inkscape:connector-curvature="0" />
    <path
       d="m 75760,21130 -500,0 0,-190 20,-50 20,-20 50,-20 70,0 50,20 20,20 30,50 0,190"
       id="path246"
       inkscape:connector-curvature="0" />
  </g>
  <g
     style="fill:#008484;fill-opacity:0;stroke:#008484;stroke-width:0;stroke-linecap:round;stroke-linejoin:round;stroke-opacity:1"
     id="g248"
     transform="translate(-43435.581,-7957.6504)" />
  <g
     style="fill:#840000;fill-opacity:0;stroke:#840000;stroke-width:60;stroke-linecap:round;stroke-linejoin:round;stroke-opacity:1"
     id="g250"
     transform="translate(-43435.581,-7957.6504)">
    <circle
       cx="75500"
       cy="17000"
       r="200"
       id="circle252" />
    <polyline
       fill="none;"
       points="75500,17500 75500,17200 75500,17200 75500,17200 "
       id="polyline254" />
  </g>
  <g
     style="fill:#008484;fill-opacity:0;stroke:#008484;stroke-width:50;stroke-linecap:round;stroke-linejoin:round;stroke-opacity:1"
     id="g256"
     transform="translate(-43435.581,-7957.6504)">
    <path
       d="m 75110,16600 230,0"
       id="path258"
       inkscape:connector-curvature="0" />
    <path
       d="m 75230,16720 0,-230"
       id="path260"
       inkscape:connector-curvature="0" />
    <path
       d="m 75620,16420 -140,0 -10,140 10,-20 30,-10 70,0 30,10 10,20 20,30 0,70 -20,30 -10,10 -30,20 -70,0 -30,-20 -10,-10"
       id="path262"
       inkscape:connector-curvature="0" />
    <path
       d="m 75730,16420 100,300 100,-300"
       id="path264"
       inkscape:connector-curvature="0" />
  </g>
  <g
     style="fill:#008484;fill-opacity:0;stroke:#008484;stroke-width:0;stroke-linecap:round;stroke-linejoin:round;stroke-opacity:1"
     id="g266"
     transform="translate(-43435.581,-7957.6504)" />
  <g
     style="fill:#840000;fill-opacity:0;stroke:#840000;stroke-width:60;stroke-linecap:round;stroke-linejoin:round;stroke-opacity:1"
     id="g268"
     transform="translate(-43435.581,-7957.6504)">
    <polyline
       fill="none;"
       points="75000,24500 75500,25000 76000,24500 75000,24500 "
       id="polyline270" />
  </g>
  <g
     style="fill:#008400;fill-opacity:0;stroke:#008400;stroke-width:60;stroke-linecap:round;stroke-linejoin:round;stroke-opacity:1"
     id="g272"
     transform="translate(-43435.581,-7957.6504)">
    <path
       d="m 75500,18500 0,-1000"
       id="path274"
       inkscape:connector-curvature="0" />
    <path
       d="m 75500,24500 0,-1000"
       id="path276"
       inkscape:connector-curvature="0" />
    <path
       d="m 77000,21000 2500,0"
       id="path278"
       inkscape:connector-curvature="0" />
  </g>
  <g
     style="fill:#008400;fill-opacity:0;stroke:#008400;stroke-width:0;stroke-linecap:round;stroke-linejoin:round;stroke-opacity:1"
     id="g280"
     transform="translate(-43435.581,-7957.6504)" />
  <g
     style="fill:#840000;fill-opacity:0;stroke:#840000;stroke-width:60;stroke-linecap:round;stroke-linejoin:round;stroke-opacity:1"
     id="g282"
     transform="translate(-43435.581,-7957.6504)">
    <polyline
       fill="none;"
       points="55500,21000 56000,20500 58500,20500 58500,21500 56000,21500 55500,21000 "
       id="polyline284" />
    <path
       d="m 55500,21000 0,0"
       id="path286"
       inkscape:connector-curvature="0" />
  </g>
  <g
     style="fill:#008484;fill-opacity:0;stroke:#008484;stroke-width:60;stroke-linecap:round;stroke-linejoin:round;stroke-opacity:1"
     id="g288"
     transform="translate(-43435.581,-7957.6504)">
    <path
       d="m 56820,21070 290,0"
       id="path290"
       inkscape:connector-curvature="0" />
    <path
       d="m 56770,21240 200,-600 200,600"
       id="path292"
       inkscape:connector-curvature="0" />
    <path
       d="m 57480,20640 50,0 60,30 30,30 30,60 30,110 0,140 -30,120 -30,50 -30,30 -60,30 -50,0 -60,-30 -30,-30 -30,-50 -30,-120 0,-140 30,-110 30,-60 30,-30 60,-30"
       id="path294"
       inkscape:connector-curvature="0" />
  </g>
  <g
     style="fill:#008484;fill-opacity:0;stroke:#008484;stroke-width:0;stroke-linecap:round;stroke-linejoin:round;stroke-opacity:1"
     id="g296"
     transform="translate(-43435.581,-7957.6504)" />
  <g
     style="fill:#840000;fill-opacity:0;stroke:#840000;stroke-width:60;stroke-linecap:round;stroke-linejoin:round;stroke-opacity:1"
     id="g298"
     transform="translate(-43435.581,-7957.6504)">
    <polyline
       fill="none;"
       points="66000,21000 66500,20500 69000,20500 69000,21500 66500,21500 66000,21000 "
       id="polyline300" />
    <path
       d="m 66000,21000 0,0"
       id="path302"
       inkscape:connector-curvature="0" />
  </g>
  <g
     style="fill:#008484;fill-opacity:0;stroke:#008484;stroke-width:60;stroke-linecap:round;stroke-linejoin:round;stroke-opacity:1"
     id="g304"
     transform="translate(-43435.581,-7957.6504)">
    <path
       d="m 67320,21070 290,0"
       id="path306"
       inkscape:connector-curvature="0" />
    <path
       d="m 67270,21240 200,-600 200,600"
       id="path308"
       inkscape:connector-curvature="0" />
    <path
       d="m 68180,21240 -350,0"
       id="path310"
       inkscape:connector-curvature="0" />
    <path
       d="m 68010,21240 0,-600 -60,90 -60,50 -60,30"
       id="path312"
       inkscape:connector-curvature="0" />
  </g>
  <g
     style="fill:#008484;fill-opacity:0;stroke:#008484;stroke-width:0;stroke-linecap:round;stroke-linejoin:round;stroke-opacity:1"
     id="g314"
     transform="translate(-43435.581,-7957.6504)" />
  <g
     style="fill:#840000;fill-opacity:0;stroke:#840000;stroke-width:60;stroke-linecap:round;stroke-linejoin:round;stroke-opacity:1"
     id="g316"
     transform="translate(-43435.581,-7957.6504)">
    <polyline
       fill="none;"
       points="79500,21000 80000,20500 82500,20500 82500,21500 80000,21500 79500,21000 "
       id="polyline318" />
    <path
       d="m 79500,21000 0,0"
       id="path320"
       inkscape:connector-curvature="0" />
  </g>
  <g
     style="fill:#008484;fill-opacity:0;stroke:#008484;stroke-width:60;stroke-linecap:round;stroke-linejoin:round;stroke-opacity:1"
     id="g322"
     transform="translate(-43435.581,-7957.6504)">
    <path
       d="m 80220,21070 290,0"
       id="path324"
       inkscape:connector-curvature="0" />
    <path
       d="m 80170,21240 200,-600 200,600"
       id="path326"
       inkscape:connector-curvature="0" />
    <path
       d="m 80760,21240 0,-600 150,0 80,30 60,60 30,50 30,120 0,80 -30,120 -30,60 -60,50 -80,30 -150,0"
       id="path328"
       inkscape:connector-curvature="0" />
    <path
       d="m 81710,21180 -30,30 -90,30 -60,0 -80,-30 -60,-50 -30,-60 -30,-120 0,-80 30,-120 30,-50 60,-60 80,-30 60,0 90,30 30,30"
       id="path330"
       inkscape:connector-curvature="0" />
    <path
       d="m 82080,20640 50,0 60,30 30,30 30,60 30,110 0,140 -30,120 -30,50 -30,30 -60,30 -50,0 -60,-30 -30,-30 -30,-50 -30,-120 0,-140 30,-110 30,-60 30,-30 60,-30"
       id="path332"
       inkscape:connector-curvature="0" />
  </g>
</svg>
